<?xml version="1.0" standalone="no"?>
<!DOCTYPE svg PUBLIC "-//W3C//DTD SVG 20010904//EN"
 "http://www.w3.org/TR/2001/REC-SVG-20010904/DTD/svg10.dtd">
<svg version="1.0" xmlns="http://www.w3.org/2000/svg"
 width="132.000000pt" height="132.000000pt" viewBox="0 0 132.000000 132.000000"
 preserveAspectRatio="xMidYMid meet">

<g transform="translate(0.000000,132.000000) scale(0.100000,-0.100000)"
fill="#000000" stroke="none">
<path d="M1290 1260 c0 -19 -9 -39 -23 -53 -13 -12 -16 -17 -7 -11 8 7 24 14
35 16 26 4 36 78 11 78 -11 0 -16 -10 -16 -30z"/>
<path d="M0 952 c0 -23 8 -32 48 -52 26 -13 55 -25 65 -26 10 -1 21 -5 25 -9
4 -5 -2 -5 -13 -1 -12 4 -16 4 -10 -2 6 -5 33 -29 60 -53 l50 -43 -43 45 c-23
25 -40 48 -37 51 7 7 -66 71 -112 98 l-33 19 0 -27z"/>
<path d="M1232 955 c-74 -34 -131 -96 -261 -282 -175 -252 -262 -336 -378
-365 l-51 -13 16 -38 c13 -34 18 -38 39 -32 97 24 211 120 311 260 33 47 63
91 66 98 5 9 7 9 12 -1 4 -8 16 8 31 40 13 29 37 67 52 83 16 17 31 42 35 58
11 45 118 145 171 159 37 10 45 16 45 35 0 30 -21 30 -88 -2z"/>
<path d="M0 791 c0 -66 3 -77 28 -110 16 -20 66 -92 112 -161 129 -193 217
-276 318 -298 47 -11 48 -9 27 41 -9 22 -30 44 -59 61 -57 33 -100 86 -229
281 -58 88 -126 183 -151 210 l-45 50 -1 -74z"/>
</g>
</svg>
